# xmcd CD database file
#
# Track frame offsets:
#	150
#	27690
#	58907
#	85405
#	102550
#	123397
#	140402
#	163995
#	185972
#
# Disc length: 2946 seconds
#
# Revision: 0
# Processed by: cddbd v1.5.2PL0 Copyright (c) Steve Scherf et al.
# Submitted via: CDex 1.51
#
DISCID=8f0b8009
DTITLE=Mal Waldron - Best selection
DYEAR=1900
DGENRE=Jazz
TTITLE0=LEFT ALONE
TTITLE1=CAT WALK
TTITLE2=YOU DON'T KNOW WHAT LOVE IS
TTITLE3=THREE FOR CICCI
TTITLE4=MOSQUE RAID
TTITLE5=WALTZ OF OBLIVIOUS
TTITLE6=ALL ALONE
TTITLE7=STABLEMATES
TTITLE8=YESTERDAYS
EXTD=
EXTT0=
EXTT1=
EXTT2=
EXTT3=
EXTT4=
EXTT5=
EXTT6=
EXTT7=
EXTT8=
PLAYORDER=
